<?xml version="1.0" standalone="no"?>
<!DOCTYPE svg PUBLIC "-//W3C//DTD SVG 20010904//EN"
 "http://www.w3.org/TR/2001/REC-SVG-20010904/DTD/svg10.dtd">
<svg version="1.0" xmlns="http://www.w3.org/2000/svg"
 width="700.000000pt" height="700.000000pt" viewBox="0 0 700.000000 700.000000"
 preserveAspectRatio="xMidYMid meet">
<metadata>
Created by potrace 1.14, written by Peter Selinger 2001-2017
</metadata>
<g transform="translate(0.000000,700.000000) scale(0.100000,-0.100000)"
fill="#000000" stroke="none">
<path d="M2880 5820 l0 -220 -220 0 -220 0 0 -240 0 -240 -320 0 -320 0 0
-450 0 -450 160 0 160 0 0 -350 0 -350 -160 0 -160 0 0 -330 0 -330 -290 0
-290 0 0 -530 0 -530 300 0 300 0 0 -420 0 -420 640 0 640 0 0 260 0 260 -220
0 -220 0 0 160 0 160 710 0 710 0 0 -420 0 -420 670 0 670 0 0 260 0 260 -220
0 -220 0 0 840 0 840 220 0 220 0 0 530 0 530 180 0 180 0 0 420 c0 273 -3
420 -10 420 -5 0 -10 7 -10 16 0 43 -9 44 -404 44 l-376 0 0 240 0 240 -290 0
-290 0 0 220 0 220 -760 0 -760 0 0 -220z"/>
</g>
</svg>
